<?xml version="1.0" encoding="UTF-8" standalone="no"?>
<svg id="stars" xmlns:dc="http://purl.org/dc/elements/1.1/" xmlns:cc="http://creativecommons.org/ns#" xmlns:rdf="http://www.w3.org/1999/02/22-rdf-syntax-ns#" xmlns:svg="http://www.w3.org/2000/svg" xmlns="http://www.w3.org/2000/svg" xmlns:sodipodi="http://sodipodi.sourceforge.net/DTD/sodipodi-0.dtd" xmlns:inkscape="http://www.inkscape.org/namespaces/inkscape" version="1.1" viewBox="0 0 26.458333 13.229167" inkscape:version="0.92.2 5c3e80d, 2017-08-06">
  <defs id="defs2" />
  <metadata id="metadata5">
    <rdf:RDF>
      <cc:Work rdf:about="">
        <dc:format>image/svg+xml</dc:format>
        <dc:type rdf:resource="http://purl.org/dc/dcmitype/StillImage" />
        <dc:title />
      </cc:Work>
    </rdf:RDF>
  </metadata>
  <path id="star1" d="m 5.4273607,4.714567 0.030195,0.0765 0.078623,-0.0241 -0.040971,0.0713 0.067847,0.0465 -0.081285,0.0124 0.00598,0.082 -0.060389,-0.0558 -0.060389,0.0558 0.00598,-0.082 -0.081285,-0.0124 0.067847,-0.0465 -0.040971,-0.0713 0.078623,0.0241 z" class="star" />
  <path id="star2" d="m 2.2523605,0.96456698 0.030195,0.0765 0.078623,-0.0241 -0.040971,0.0713 0.067847,0.0465 -0.081285,0.0124 0.00598,0.082 -0.060389,-0.0558 -0.060389,0.0558 0.00598,-0.082 -0.081285,-0.0124 0.067847,-0.0465 -0.040971,-0.0713 0.078623,0.0241 z" class="star" />
  <path id="star3" d="m 3.3106939,10.0542 0.030195,0.0765 0.078623,-0.0241 -0.040971,0.0713 0.067847,0.0465 -0.081285,0.0124 0.00598,0.082 -0.060389,-0.0558 -0.060389,0.0558 0.00598,-0.082 -0.081285,-0.0124 0.067847,-0.0465 -0.040971,-0.0713 0.078623,0.0241 z" class="star" />
  <path id="star4" d="m 22.889869,11.11254 0.03019,0.0765 0.07862,-0.0241 -0.04097,0.0713 0.06785,0.0465 -0.08128,0.0124 0.006,0.082 -0.06039,-0.0558 -0.06039,0.0558 0.006,-0.082 -0.08129,-0.0124 0.06785,-0.0465 -0.04097,-0.0713 0.07862,0.0241 z" class="star" />
  <path id="star5" d="m 12.835696,2.64582 0.03019,0.0765 0.07862,-0.0241 -0.04097,0.0713 0.06785,0.0465 -0.08128,0.0124 0.006,0.082 -0.06039,-0.0558 -0.06039,0.0558 0.006,-0.082 -0.08129,-0.0124 0.06785,-0.0465 -0.04097,-0.0713 0.07862,0.0241 z" class="star" />
  <path id="star6" d="m 24.38566,1.58748 0.03019,0.0765 0.07862,-0.0241 -0.04097,0.0713 0.06785,0.0465 -0.08128,0.0124 0.006,0.082 -0.06039,-0.0558 -0.06039,0.0558 0.006,-0.082 -0.08129,-0.0124 0.06785,-0.0465 -0.04097,-0.0713 0.07862,0.0241 z" class="star" />
  <path id="star7" d="m 11.777362,8.46669 0.03019,0.0765 0.07862,-0.0241 -0.04097,0.0713 0.06785,0.0465 -0.08128,0.0124 0.006,0.082 -0.06039,-0.0558 -0.06039,0.0558 0.006,-0.082 -0.08129,-0.0124 0.06785,-0.0465 -0.04097,-0.0713 0.07862,0.0241 z" class="star" />
  <path id="star8" d="m 18.127366,4.23333 0.03019,0.0765 0.07862,-0.0241 -0.04097,0.0713 0.06785,0.0465 -0.08128,0.0124 0.006,0.082 -0.06039,-0.0558 -0.06039,0.0558 0.006,-0.082 -0.08129,-0.0124 0.06785,-0.0465 -0.04097,-0.0713 0.07862,0.0241 z" class="star" />
</svg>