<?xml version="1.0" encoding="UTF-8" standalone="no"?>
<svg
   xmlns:dc="http://purl.org/dc/elements/1.1/"
   xmlns:cc="http://creativecommons.org/ns#"
   xmlns:rdf="http://www.w3.org/1999/02/22-rdf-syntax-ns#"
   xmlns:svg="http://www.w3.org/2000/svg"
   xmlns="http://www.w3.org/2000/svg"
   id="svg8"
   version="1.1"
   viewBox="0 0 26.458333 26.458334"
   height="100"
   width="100">
  <defs
     id="defs2" />
  <metadata
     id="metadata5">
    <rdf:RDF>
      <cc:Work
         rdf:about="">
        <dc:format>image/svg+xml</dc:format>
        <dc:type
           rdf:resource="http://purl.org/dc/dcmitype/StillImage" />
        <dc:title></dc:title>
      </cc:Work>
    </rdf:RDF>
  </metadata>
  <g
     transform="translate(0,-270.54165)"
     id="layer1">
    <path
       id="path815"
       d="m 21.828125,283.77082 a 8.5989582,8.5989582 0 0 1 -8.598958,8.59896 8.5989582,8.5989582 0 0 1 -8.5989582,-8.59896 8.5989582,8.5989582 0 0 1 8.5989582,-8.59896 8.5989582,8.5989582 0 0 1 8.598958,8.59896 z"
       style="fill:#ffe132;fill-opacity:1;stroke:none;stroke-width:2.64583325;stroke-miterlimit:4;stroke-dasharray:none;stroke-opacity:1;paint-order:stroke fill markers" />
    <path
       id="path842"
       d="m 13.229173,270.54165 2.267858,3.77976 c 0,0 -1.50619,-0.27938 -2.267858,-0.27938 -0.761666,0 -2.267857,0.27938 -2.267857,0.27938 z"
       style="fill:#ffe132;fill-opacity:1;stroke:none;stroke-width:2.64583349;stroke-miterlimit:4;stroke-dasharray:none;stroke-opacity:1;paint-order:stroke fill markers" />
    <path
       style="fill:#ffe132;fill-opacity:1;stroke:none;stroke-width:2.64583349;stroke-miterlimit:4;stroke-dasharray:none;stroke-opacity:1;paint-order:stroke fill markers"
       d="m 13.229173,296.99998 2.267858,-3.77976 c 0,0 -1.50619,0.27937 -2.267858,0.27937 -0.761666,0 -2.267857,-0.27937 -2.267857,-0.27937 z"
       id="path847" />
    <path
       style="fill:#ffe132;fill-opacity:1;stroke:none;stroke-width:2.64583349;stroke-miterlimit:4;stroke-dasharray:none;stroke-opacity:1;paint-order:stroke fill markers"
       d="M 1.5196759e-7,283.77082 3.7797579,281.50296 c 0,0 -0.2793716,1.50619 -0.2793716,2.26786 0,0.76167 0.2793716,2.26785 0.2793716,2.26785 z"
       id="path849" />
    <path
       id="path851"
       d="m 26.458333,283.77082 -3.779757,-2.26786 c 0,0 0.279371,1.50619 0.279371,2.26786 0,0.76167 -0.279371,2.26785 -0.279371,2.26785 z"
       style="fill:#ffe132;fill-opacity:1;stroke:none;stroke-width:2.64583349;stroke-miterlimit:4;stroke-dasharray:none;stroke-opacity:1;paint-order:stroke fill markers" />
    <path
       style="fill:#ffe132;fill-opacity:1;stroke:none;stroke-width:2.64583349;stroke-miterlimit:4;stroke-dasharray:none;stroke-opacity:1;paint-order:stroke fill markers"
       d="m 3.8747433,274.41637 4.2763098,1.06908 c 0,0 -1.2625828,0.86748 -1.8011629,1.40607 -0.53858,0.53859 -1.406072,1.80115 -1.406072,1.80115 z"
       id="path859" />
    <path
       id="path861"
       d="m 22.583609,293.12524 -1.069075,-4.2763 c 0,0 -0.867491,1.26257 -1.406071,1.80115 -0.53858,0.53859 -1.801163,1.40607 -1.801163,1.40607 z"
       style="fill:#ffe132;fill-opacity:1;stroke:none;stroke-width:2.64583349;stroke-miterlimit:4;stroke-dasharray:none;stroke-opacity:1;paint-order:stroke fill markers" />
    <path
       id="path863"
       d="m 3.8747433,293.12525 1.0690749,-4.27631 c 0,0 0.8674888,1.26258 1.406072,1.80117 0.5385831,0.53857 1.8011629,1.40607 1.8011629,1.40607 z"
       style="fill:#ffe132;fill-opacity:1;stroke:none;stroke-width:2.64583349;stroke-miterlimit:4;stroke-dasharray:none;stroke-opacity:1;paint-order:stroke fill markers" />
    <path
       style="fill:#ffe132;fill-opacity:1;stroke:none;stroke-width:2.64583349;stroke-miterlimit:4;stroke-dasharray:none;stroke-opacity:1;paint-order:stroke fill markers"
       d="m 22.583609,274.41637 -4.276309,1.06909 c 0,0 1.26258,0.86749 1.801163,1.40607 0.538584,0.53859 1.406071,1.80116 1.406071,1.80116 z"
       id="path865" />
  </g>
</svg>
